<?xml version="1.0" standalone="no"?>
<!DOCTYPE svg PUBLIC "-//W3C//DTD SVG 20010904//EN"
 "http://www.w3.org/TR/2001/REC-SVG-20010904/DTD/svg10.dtd">
<svg version="1.0" xmlns="http://www.w3.org/2000/svg"
 width="800.000000pt" height="600.000000pt" viewBox="0 0 800.000000 600.000000"
 preserveAspectRatio="xMidYMid meet">

<g transform="translate(0.000000,600.000000) scale(0.100000,-0.100000)"
fill="#000000" stroke="none">
<path d="M4355 3677 c-86 -29 -153 -84 -193 -161 -24 -45 -27 -62 -27 -146 0
-80 4 -102 23 -138 35 -66 88 -119 150 -149 48 -24 70 -28 137 -28 67 0 89 4
137 28 62 30 115 83 150 149 19 36 23 59 23 133 0 78 -4 97 -28 147 -31 62
-84 116 -149 149 -53 27 -165 35 -223 16z m171 -116 c79 -36 133 -136 118
-219 -31 -173 -219 -237 -340 -117 -158 158 20 428 222 336z"/>
<path d="M5054 3672 c-222 -79 -284 -363 -116 -530 65 -65 119 -86 222 -86 72
0 93 4 136 26 65 34 137 114 158 175 9 26 16 76 16 113 0 37 -7 87 -16 113
-21 61 -94 141 -158 174 -68 35 -170 41 -242 15z m174 -108 c145 -60 176 -248
59 -351 -129 -114 -327 -19 -327 155 0 91 40 159 115 193 49 23 104 24 153 3z"/>
<path d="M3668 3674 c-5 -4 -8 -142 -8 -306 l0 -298 125 0 c106 0 132 3 165
20 60 31 90 82 90 154 0 68 -21 111 -70 140 -32 18 -32 18 -12 40 47 51 55
108 23 166 -29 54 -87 78 -206 86 -55 3 -103 3 -107 -2z m204 -131 c42 -38 6
-103 -57 -103 l-35 0 0 60 0 60 37 0 c20 0 45 -7 55 -17z m40 -243 c18 -23 24
-66 10 -86 -14 -21 -51 -34 -96 -34 l-46 0 0 73 c0 41 2 76 5 79 3 2 28 1 57
-2 36 -5 57 -14 70 -30z"/>
<path d="M5590 3375 l0 -305 58 0 57 0 -3 130 c-2 77 1 130 6 130 6 0 12 -6
15 -13 3 -7 42 -66 86 -130 l82 -117 69 0 69 0 -115 165 c-74 105 -113 169
-108 177 5 7 50 67 101 132 51 65 93 123 93 128 0 4 -28 8 -63 8 l-64 0 -78
-100 c-43 -56 -82 -103 -87 -106 -5 -4 -8 37 -7 98 l2 103 -57 3 -56 3 0 -306z"/>
<path d="M3750 2948 c-72 -20 -120 -98 -101 -165 15 -54 29 -70 114 -137 127
-101 153 -145 122 -209 -17 -35 -65 -67 -102 -67 -27 0 -78 34 -104 69 -26 35
-27 36 -53 16 -19 -14 -18 -16 7 -55 35 -52 91 -80 160 -80 133 0 209 132 142
246 -15 26 -60 70 -110 109 -100 79 -115 97 -115 146 0 29 6 43 26 58 45 35
96 25 144 -30 l25 -28 24 20 24 20 -29 30 c-51 54 -112 74 -174 57z"/>
<path d="M4689 2950 c-96 -17 -184 -84 -229 -175 -35 -71 -36 -208 -2 -277 30
-60 90 -120 150 -150 63 -30 180 -37 251 -13 64 21 144 92 179 159 23 44 27
63 27 141 0 74 -5 98 -24 137 -43 88 -132 159 -216 173 -76 12 -90 13 -136 5z
m140 -66 c101 -30 181 -140 181 -249 0 -171 -169 -299 -332 -251 -190 56 -250
295 -109 436 74 74 158 95 260 64z"/>
<path d="M4030 2910 l0 -30 70 0 70 0 0 -275 0 -275 30 0 30 0 0 275 0 275 70
0 70 0 0 30 0 30 -170 0 -170 0 0 -30z"/>
<path d="M5200 2636 l0 -306 30 0 30 0 0 140 c0 127 2 140 18 140 10 0 60 -54
126 -140 102 -130 112 -140 143 -140 18 0 33 3 33 8 -1 4 -47 65 -104 137
l-103 130 58 12 c106 21 156 81 147 175 -6 56 -30 94 -79 123 -28 17 -56 21
-166 23 l-133 4 0 -306z m284 215 c54 -51 38 -139 -29 -167 -20 -8 -68 -14
-115 -14 l-80 0 0 106 0 106 99 -4 c89 -3 102 -6 125 -27z"/>
<path d="M5710 2635 l0 -305 175 0 175 0 0 30 0 30 -145 0 -145 0 0 120 0 120
145 0 145 0 0 30 0 30 -145 0 -145 0 0 95 0 95 145 0 145 0 0 30 0 30 -175 0
-175 0 0 -305z"/>
<path d="M1955 2540 c4 -6 185 -10 509 -10 479 0 504 -1 520 -19 37 -41 28
-138 -15 -161 -11 -6 -217 -10 -518 -10 -327 0 -501 -3 -501 -10 0 -15 1445
-14 1473 2 37 19 46 41 47 106 0 54 -4 66 -25 87 l-24 25 -736 0 c-488 0 -734
-3 -730 -10z"/>
</g>
</svg>
